Coordinates
version=1
nRows=24
nColumns=24
inDegrees=yes

Units are S.I. units (second, meters, Newtons, ...)
Angles are in degrees.

endheader
time	pelvis_tilt	pelvis_list	pelvis_rotation	pelvis_tx	pelvis_ty	pelvis_tz	hip_flexion_r	hip_adduction_r	hip_rotation_r	knee_angle_r	ankle_angle_r	subtalar_angle_r	mtp_angle_r	hip_flexion_l	hip_adduction_l	hip_rotation_l	knee_angle_l	ankle_angle_l	subtalar_angle_l	mtp_angle_l	lumbar_extension	lumbar_bending	lumbar_rotation
      2.81500000	     -1.57061572	     -4.52585537	     -0.96756191	     -1.21631362	      0.94141126	      0.21789705	     11.90520113	     12.57578690	     10.58689084	    -21.22806512	     13.53813387	    -15.10692220	      0.00000000	     26.05227142	     -5.43865955	     -4.22761383	    -67.47681354	     11.74045563	    -12.95047792	      0.00000000	    -11.23763243	      3.27035500	     -7.33043748
      2.82000000	     -1.50700832	     -4.31802981	     -1.18227573	     -1.20993937	      0.94232692	      0.21815048	     11.17518233	     12.36061326	     10.91350650	    -20.85970215	     13.76351725	    -15.02869863	      0.00000000	     26.43244674	     -5.23086602	     -4.33210352	    -66.46628553	     12.16039959	    -12.49694393	      0.00000000	    -11.32729604	      2.98209192	     -7.09737788
      2.82500000	     -1.46397416	     -4.11603999	     -1.37150231	     -1.20355489	      0.94313200	      0.21843431	     10.46658995	     12.14639489	     11.21445617	    -20.47719523	     13.99563832	    -14.97033039	      0.00000000	     26.81635891	     -5.02130158	     -4.41004160	    -65.38398246	     12.50115786	    -12.10688380	      0.00000000	    -11.38470713	      2.68353448	     -6.91363368
      2.83000000	     -1.49935482	     -3.93329175	     -1.51945848	     -1.19716515	      0.94373549	      0.21865456	      9.86072288	     11.93936722	     11.42033943	    -20.10695135	     14.21641855	    -14.91792393	      0.00000000	     27.27084059	     -4.80985393	     -4.43718411	    -64.23761632	     12.80531661	    -11.75599612	      0.00000000	    -11.33975238	      2.42673925	     -6.83582298
      2.83500000	     -1.44449272	     -3.74698984	     -1.76265780	     -1.19078186	      0.94439147	      0.21893039	      9.15740431	     11.73740315	     11.75305480	    -19.75853775	     14.47090792	    -14.84721517	      0.00000000	     27.56261556	     -4.62308022	     -4.55439446	    -62.98380019	     13.08332624	    -11.51613874	      0.00000000	    -11.41206041	      2.15925148	     -6.56180902
      2.84000000	     -1.43412131	     -3.58168673	     -1.95806278	     -1.18439753	      0.94488908	      0.21915538	      8.51245268	     11.54790616	     12.02369861	    -19.40990864	     14.69605021	    -14.80987580	      0.00000000	     27.88801394	     -4.43395072	     -4.61296512	    -61.66714413	     13.33228352	    -11.32051241	      0.00000000	    -11.43072501	      1.92117713	     -6.38571331
      2.84500000	     -1.49358031	     -3.44139849	     -2.11614332	     -1.17799945	      0.94517475	      0.21933649	      7.96664127	     11.38169448	     12.22491628	    -19.09555754	     14.91792672	    -14.78479853	      0.00000000	     28.26936876	     -4.24513463	     -4.60045516	    -60.29213218	     13.58454101	    -11.13506771	      0.00000000	    -11.35922488	      1.72307805	     -6.28791605
      2.85000000	     -1.46788525	     -3.28831628	     -2.36963755	     -1.17157262	      0.94551618	      0.21963957	      7.31596322	     11.20906483	     12.53789595	    -18.77400708	     15.16987131	    -14.76608311	      0.00000000	     28.50088608	     -4.10138938	     -4.73023579	    -58.82072874	     13.75742697	    -11.07368705	      0.00000000	    -11.38682838	      1.48843330	     -6.03770808
      2.85500000	     -1.44779773	     -3.17051252	     -2.58452548	     -1.16517586	      0.94574791	      0.21985150	      6.68990202	     11.06840607	     12.84842819	    -18.48141926	     15.38609964	    -14.78216400	      0.00000000	     28.71765530	     -3.94901230	     -4.75335408	    -57.28839401	     13.93610176	    -11.02619825	      0.00000000	    -11.41869714	      1.30776127	     -5.80559712
      2.86000000	     -1.51926832	     -3.07273961	     -2.74462562	     -1.15876637	      0.94572050	      0.22000260	      6.18983371	     10.94775370	     13.06049773	    -18.22679724	     15.61666524	    -14.81236361	      0.00000000	     29.02163908	     -3.79215032	     -4.69439043	    -55.71466674	     14.14657874	    -10.92592179	      0.00000000	    -11.33743737	      1.16332531	     -5.68949147
      2.86500000	     -1.49906159	     -2.95639120	     -3.00822449	     -1.15230060	      0.94578112	      0.22031126	      5.57361162	     10.81456792	     13.40604880	    -17.96136671	     15.85157450	    -14.87108612	      0.00000000	     29.16161997	     -3.68432359	     -4.80335832	    -54.03841735	     14.28153531	    -10.94720559	      0.00000000	    -11.35712456	      0.97243058	     -5.44663972
      2.87000000	     -1.47144165	     -2.88206521	     -3.23389627	     -1.14586806	      0.94575241	      0.22051313	      4.96351644	     10.71976106	     13.76328408	    -17.72214401	     16.05365040	    -14.96651596	      0.00000000	     29.27558188	     -3.57480197	     -4.78914462	    -52.31653456	     14.43659928	    -10.91735887	      0.00000000	    -11.40108636	      0.84598803	     -5.19206465
      2.87500000	     -1.54649588	     -2.82013968	     -3.39210622	     -1.13943079	      0.94544090	      0.22066697	      4.50023825	     10.64226401	     13.99777713	    -17.53753210	     16.29931765	    -15.04765627	      0.00000000	     29.49225187	     -3.45360891	     -4.68422495	    -50.56204196	     14.63903037	    -10.79355198	      0.00000000	    -11.31738433	      0.74087692	     -5.06643376
      2.88000000	     -1.49280910	     -2.75445041	     -3.66713202	     -1.13296934	      0.94529662	      0.22093448	      3.87139201	     10.55719003	     14.41644854	    -17.32534016	     16.51049906	    -15.17765639	      0.00000000	     29.50341052	     -3.38481169	     -4.72104647	    -48.71021963	     14.77366320	    -10.76269056	      0.00000000	    -11.39370320	      0.61248985	     -4.77662722
      2.88500000	     -1.52510188	     -2.69812562	     -3.85872999	     -1.12646396	      0.94491262	      0.22110496	      3.35828597	     10.48161145	     14.72121868	    -17.14861623	     16.75349518	    -15.30081717	      0.00000000	     29.59816978	     -3.29710010	     -4.66977964	    -46.82856943	     14.95972419	    -10.59767364	      0.00000000	    -11.35876668	      0.51458185	     -4.62738068
      2.89000000	     -1.51741912	     -2.66494396	     -4.08081644	     -1.12002509	      0.94451511	      0.22129345	      2.81467862	     10.42940953	     15.08314815	    -16.99874565	     16.99436343	    -15.42937189	      0.00000000	     29.61701849	     -3.22852764	     -4.56648719	    -44.89564163	     15.13416952	    -10.40665335	      0.00000000	    -11.39533851	      0.43289742	     -4.38980301
      2.89500000	     -1.53594255	     -2.62955602	     -4.28164977	     -1.11355499	      0.94400288	      0.22145082	      2.30897867	     10.37299667	     15.40998981	    -16.86594011	     17.25574556	    -15.54758861	      0.00000000	     29.63804546	     -3.15947214	     -4.45231475	    -42.91760230	     15.32375634	    -10.13445591	      0.00000000	    -11.39513846	      0.35296647	     -4.21138828
      2.90000000	     -1.57801848	     -2.59618579	     -4.46138762	     -1.10704342	      0.94339001	      0.22156713	      1.83526612	     10.31540093	     15.70458900	    -16.74811551	     17.54049666	    -15.63649050	      0.00000000	     29.66054441	     -3.09373269	     -4.32937158	    -40.90100010	     15.51318132	     -9.78751807	      0.00000000	    -11.36152278	      0.28864172	     -4.06300051
      2.90500000	     -1.61788764	     -2.56770552	     -4.64630504	     -1.10055875	      0.94271475	      0.22167356	      1.37317366	     10.26084908	     15.99539410	    -16.65441065	     17.84090743	    -15.71134287	      0.00000000	     29.65273850	     -3.03222177	     -4.16258459	    -38.84651077	     15.70280652	     -9.37724718	      0.00000000	    -11.34150393	      0.22447399	     -3.91048765
      2.91000000	     -1.67226108	     -2.54162804	     -4.82481063	     -1.09407713	      0.94195377	      0.22179428	      0.94012751	     10.21097655	     16.26409592	    -16.58513359	     18.16238883	    -15.77310950	      0.00000000	     29.63761687	     -2.97583371	     -3.94958672	    -36.76511900	     15.88561389	     -8.89827257	      0.00000000	    -11.31195435	      0.16017399	     -3.77917023
      2.91500000	     -1.70377957	     -2.50593635	     -4.99837777	     -1.08758467	      0.94117650	      0.22186305	      0.49030401	     10.14415129	     16.54501984	    -16.53401956	     18.49234288	    -15.81655271	      0.00000000	     29.57050488	     -2.91354749	     -3.74315157	    -34.64659154	     16.05805399	     -8.37836930	      0.00000000	    -11.31318583	      0.09423494	     -3.63365382
      2.92000000	     -1.73699039	     -2.48000597	     -5.16103586	     -1.08108162	      0.94034137	      0.22189963	      0.04742671	     10.08324176	     16.79981508	    -16.49106137	     18.83226051	    -15.84405941	      0.00000000	     29.48774275	     -2.86065324	     -3.49792582	    -32.51525404	     16.21758012	     -7.82797113	      0.00000000	    -11.31930650	      0.03638823	     -3.49434528
      2.92500000	     -1.77942694	     -2.44558391	     -5.31368280	     -1.07457444	      0.93943671	      0.22193934	     -0.37095204	     10.01547090	     17.03212217	    -16.47488586	     19.19030320	    -15.85578134	      0.00000000	     29.39982222	     -2.80621260	     -3.23022384	    -30.37654474	     16.35496041	     -7.25081398	      0.00000000	    -11.31669847	     -0.02810045	     -3.38084245
      2.93000000	     -1.82084322	     -2.40872491	     -5.46141321	     -1.06806401	      0.93848364	      0.22197148	     -0.77943628	      9.94375794	     17.24297939	    -16.47830900	     19.56297643	    -15.84597976	      0.00000000	     29.29903578	     -2.75640841	     -2.94187680	    -28.24135201	     16.46284410	     -6.67499248	      0.00000000	    -11.32080793	     -0.09778695	     -3.27648051
